<svg xmlns="http://www.w3.org/2000/svg" viewBox="0 0 368.15 77.28"><title>logo</title><g id="Camada_2" data-name="Camada 2"><g id="Camada_1-2" data-name="Camada 1"><g id="LF3dDA"><path d="M58.38,16.06H4.9V28.11H44.41V36.9c-5.66,0-11-.09-16.27,0-7,.16-14,.87-20.09,4.93C-2.35,48.76-2.76,65,7.32,72.28c12.2,8.83,28.39,5.67,36.26-7.06.12-.19.56-.17,1.4-.39V75.09h13.4Zm263,35.37h5.47c12.32,0,24.64.09,36.95-.13,1.46,0,4.06-1.56,4.17-2.59,1.32-12.9-3.2-25-15.79-31.22a31.68,31.68,0,0,0-35,4.81c-9.08,8.19-12.2,22.44-7.66,35,6,16.55,25.9,24.3,44.29,17.23,8.73-3.36,10.32-6.82,7.43-16.25C342.31,69.49,324,66.53,321.34,51.43ZM233.52,14.31c-18.1-.16-31.27,12.47-31.49,30.21-.23,18.6,12.53,32,30.71,32.15,18,.18,31.64-13,31.88-30.64C264.86,27.6,252,14.46,233.52,14.31ZM196.79,56.67C185,66.05,172.6,66.79,164.6,59.3c-6.31-5.9-7.8-17.79-2.24-24.72a22.66,22.66,0,0,1,10.36-7.11c8.79-2.71,16.91-.36,24.06,6.92,0-4.75.25-8.42-.11-12a6.46,6.46,0,0,0-2.48-4.3c-15-9.44-39.37-1.86-46.19,14.2-5.34,12.57-2.34,27.9,7.12,36.43s27.63,10.73,38.53,4.63a6.22,6.22,0,0,0,3-4C197.06,65.47,196.79,61.51,196.79,56.67ZM112,0V75.09h13.4V27.41h19.19V15.32H125V0ZM284.08,27.75H307V16.18H270.64V75h13.44ZM82,75.13V27.81h22.3V16.2H68.16V75.13Z" style="fill:#fff"/><path d="M58.38,16.06v59H45V64.83c-.84.22-1.28.2-1.4.39C35.71,78,19.52,81.11,7.32,72.28-2.76,65-2.35,48.76,8.05,41.85c6.12-4.06,13.05-4.77,20.09-4.93,5.3-.11,10.61,0,16.27,0V28.11H4.9v-12ZM44.46,48.69c-7.76,0-15.22-.36-22.62.15-4.1.28-7.7,2.43-7.87,7.48-.15,4.32,2.47,7.82,7.62,8.26a39,39,0,0,0,14.16-1.13C42.67,61.4,45,56.72,44.46,48.69Z"/><path d="M321.34,51.43c2.69,15.1,21,18.06,39.89,6.87,2.89,9.43,1.3,12.89-7.43,16.25-18.39,7.07-38.32-.68-44.29-17.23-4.54-12.58-1.42-26.83,7.66-35a31.68,31.68,0,0,1,35-4.81c12.59,6.21,17.11,18.32,15.79,31.22-.11,1-2.71,2.57-4.17,2.59-12.31.22-24.63.13-36.95.13ZM354.82,39c-2.65-9.07-9-13.5-17.69-13-7.91.49-15.47,6.08-15.38,13Z"/><path d="M233.52,14.31C252,14.46,264.86,27.6,264.62,46c-.24,17.69-13.89,30.82-31.88,30.64C214.56,76.49,201.8,63.12,202,44.52,202.25,26.78,215.42,14.15,233.52,14.31Zm17.69,31.28c0-10.94-7.24-18.26-18-18.25-10.5,0-18,7.38-18,17.81-.07,10.77,7.37,18.51,17.86,18.59S251.21,56.29,251.21,45.59Z"/><path d="M196.79,56.67c0,4.84.27,8.8-.14,12.69a6.22,6.22,0,0,1-3,4c-10.9,6.1-29.17,3.81-38.53-4.63S142.66,44.82,148,32.25c6.82-16.06,31.21-23.64,46.19-14.2a6.46,6.46,0,0,1,2.48,4.3c.36,3.62.11,7.29.11,12-7.15-7.28-15.27-9.63-24.06-6.92a22.66,22.66,0,0,0-10.36,7.11c-5.56,6.93-4.07,18.82,2.24,24.72C172.6,66.79,185,66.05,196.79,56.67Z"/><path d="M112,0H125V15.32h19.51V27.41H125.35V75.09H112Z"/><path d="M284.08,27.75V75H270.64V16.18H307V27.75Z"/><path d="M82,75.13H68.16V16.2h36.12V27.81H82Z"/><path d="M44.46,48.69c.58,8-1.79,12.71-8.71,14.76a39,39,0,0,1-14.16,1.13c-5.15-.44-7.77-3.94-7.62-8.26.17-5,3.77-7.2,7.87-7.48C29.24,48.33,36.7,48.69,44.46,48.69Z" style="fill:#fff"/><path d="M354.82,39H321.75c-.09-6.89,7.47-12.48,15.38-13C345.78,25.47,352.17,29.9,354.82,39Z" style="fill:#fff"/><path d="M251.21,45.59c0,10.7-7.55,18.24-18.19,18.15s-17.93-7.82-17.86-18.59c.06-10.43,7.52-17.8,18-17.81C244,27.33,251.21,34.65,251.21,45.59Z" style="fill:#fff"/></g></g></g></svg>